HIERARCHY
ROOT Hips
{
	OFFSET -14.64140 90.27770 -84.91600
	CHANNELS 6 Xposition Yposition Zposition Zrotation Xrotation Yrotation
	JOINT Spine
	{
		OFFSET 0.00000 13.20850 -1.60436
		CHANNELS 3 Zrotation Xrotation Yrotation
		JOINT Spine1
		{
			OFFSET 0.00000 8.61716 0.00000
			CHANNELS 3 Zrotation Xrotation Yrotation
			JOINT Spine2
			{
				OFFSET 0.00000 8.61717 0.00000
				CHANNELS 3 Zrotation Xrotation Yrotation
				JOINT Spine3
				{
					OFFSET 0.00000 8.61717 0.00000
					CHANNELS 3 Zrotation Xrotation Yrotation
					JOINT Neck
					{
						OFFSET 0.00000 11.07920 1.10792
						CHANNELS 3 Zrotation Xrotation Yrotation
						JOINT Neck1
						{
							OFFSET 0.00000 7.08032 0.00000
							CHANNELS 3 Zrotation Xrotation Yrotation
							JOINT Head
							{
								OFFSET 0.00000 7.08031 0.00000
								CHANNELS 3 Zrotation Xrotation Yrotation
								End site
								{
									OFFSET 0.00000 0.00000 0.00000
								}
							}
						}
					}
					JOINT RightShoulder
					{
						OFFSET -0.01000 7.91373 5.19711
						CHANNELS 3 Zrotation Xrotation Yrotation
						JOINT RightArm
						{
							OFFSET -18.41580 0.00000 0.00000
							CHANNELS 3 Zrotation Xrotation Yrotation
							JOINT RightForeArm
							{
								OFFSET -29.11090 0.00000 0.00000
								CHANNELS 3 Zrotation Xrotation Yrotation
								JOINT RightHand
								{
									OFFSET -24.65040 0.00000 0.00000
									CHANNELS 3 Zrotation Xrotation Yrotation
									JOINT RightHandThumb1
									{
										OFFSET -5.35114 -0.85590 3.97906
										CHANNELS 3 Zrotation Xrotation Yrotation
										JOINT RightHandThumb2
										{
											OFFSET -4.52789 0.00000 0.00000
											CHANNELS 3 Zrotation Xrotation Yrotation
											JOINT RightHandThumb3
											{
												OFFSET -2.46976 0.00000 0.00000
												CHANNELS 3 Zrotation Xrotation Yrotation
												End site
												{
													OFFSET 0.00000 0.00000 0.00000
												}
											}
										}
									}
									JOINT RightHandIndex1
									{
										OFFSET -14.26970 0.00000 2.88139
										CHANNELS 3 Zrotation Xrotation Yrotation
										JOINT RightHandIndex2
										{
											OFFSET -5.48836 0.00000 0.00000
											CHANNELS 3 Zrotation Xrotation Yrotation
											JOINT RightHandIndex3
											{
												OFFSET -3.01859 0.00000 0.00000
												CHANNELS 3 Zrotation Xrotation Yrotation
												End site
												{
													OFFSET 0.00000 0.00000 0.00000
												}
											}
										}
									}
									JOINT RightHandMiddle1
									{
										OFFSET -14.26970 0.00000 -0.09147
										CHANNELS 3 Zrotation Xrotation Yrotation
										JOINT RightHandMiddle2
										{
											OFFSET -6.17441 0.00000 0.00000
											CHANNELS 3 Zrotation Xrotation Yrotation
											JOINT RightHandMiddle3
											{
												OFFSET -3.56743 0.00000 0.00000
												CHANNELS 3 Zrotation Xrotation Yrotation
												End site
												{
													OFFSET 0.00000 0.00000 0.00000
												}
											}
										}
									}
									JOINT RightHandRing1
									{
										OFFSET -12.69180 0.00000 -3.06433
										CHANNELS 3 Zrotation Xrotation Yrotation
										JOINT RightHandRing2
										{
											OFFSET -5.62556 0.00000 0.00000
											CHANNELS 3 Zrotation Xrotation Yrotation
											JOINT RightHandRing3
											{
												OFFSET -3.56744 0.00000 0.00000
												CHANNELS 3 Zrotation Xrotation Yrotation
												End site
												{
													OFFSET 0.00000 0.00000 0.00000
												}
											}
										}
									}
									JOINT RightHandPinky1
									{
										OFFSET -11.11390 0.00000 -6.03719
										CHANNELS 3 Zrotation Xrotation Yrotation
										JOINT RightHandPinky2
										{
											OFFSET -4.52789 0.00000 0.00000
											CHANNELS 3 Zrotation Xrotation Yrotation
											JOINT RightHandPinky3
											{
												OFFSET -2.46976 0.00000 0.00000
												CHANNELS 3 Zrotation Xrotation Yrotation
												End site
												{
													OFFSET 0.00000 0.00000 0.00000
												}
											}
										}
									}
								}
							}
						}
					}
					JOINT LeftShoulder
					{
						OFFSET 0.01000 7.91373 5.19711
						CHANNELS 3 Zrotation Xrotation Yrotation
						JOINT LeftArm
						{
							OFFSET 18.41580 0.00000 0.00000
							CHANNELS 3 Zrotation Xrotation Yrotation
							JOINT LeftForeArm
							{
								OFFSET 29.11090 0.00000 0.00000
								CHANNELS 3 Zrotation Xrotation Yrotation
								JOINT LeftHand
								{
									OFFSET 24.65040 0.00000 0.00000
									CHANNELS 3 Zrotation Xrotation Yrotation
									JOINT LeftHandThumb1
									{
										OFFSET 5.35114 -0.85590 3.97906
										CHANNELS 3 Zrotation Xrotation Yrotation
										JOINT LeftHandThumb2
										{
											OFFSET 4.52789 0.00000 0.00000
											CHANNELS 3 Zrotation Xrotation Yrotation
											JOINT LeftHandThumb3
											{
												OFFSET 2.46977 0.00000 0.00000
												CHANNELS 3 Zrotation Xrotation Yrotation
												End site
												{
													OFFSET 0.00000 0.00000 0.00000
												}
											}
										}
									}
									JOINT LeftHandIndex1
									{
										OFFSET 14.26970 0.00000 2.88139
										CHANNELS 3 Zrotation Xrotation Yrotation
										JOINT LeftHandIndex2
										{
											OFFSET 5.48836 0.00000 0.00000
											CHANNELS 3 Zrotation Xrotation Yrotation
											JOINT LeftHandIndex3
											{
												OFFSET 3.01859 0.00000 0.00000
												CHANNELS 3 Zrotation Xrotation Yrotation
												End site
												{
													OFFSET 0.00000 0.00000 0.00000
												}
											}
										}
									}
									JOINT LeftHandMiddle1
									{
										OFFSET 14.26970 0.00000 -0.09147
										CHANNELS 3 Zrotation Xrotation Yrotation
										JOINT LeftHandMiddle2
										{
											OFFSET 6.17440 0.00000 0.00000
											CHANNELS 3 Zrotation Xrotation Yrotation
											JOINT LeftHandMiddle3
											{
												OFFSET 3.56744 0.00000 0.00000
												CHANNELS 3 Zrotation Xrotation Yrotation
												End site
												{
													OFFSET 0.00000 0.00000 0.00000
												}
											}
										}
									}
									JOINT LeftHandRing1
									{
										OFFSET 12.69180 0.00000 -3.06433
										CHANNELS 3 Zrotation Xrotation Yrotation
										JOINT LeftHandRing2
										{
											OFFSET 5.62556 0.00000 0.00000
											CHANNELS 3 Zrotation Xrotation Yrotation
											JOINT LeftHandRing3
											{
												OFFSET 3.56744 0.00000 0.00000
												CHANNELS 3 Zrotation Xrotation Yrotation
												End site
												{
													OFFSET 0.00000 0.00000 0.00000
												}
											}
										}
									}
									JOINT LeftHandPinky1
									{
										OFFSET 11.11390 0.00000 -6.03719
										CHANNELS 3 Zrotation Xrotation Yrotation
										JOINT LeftHandPinky2
										{
											OFFSET 4.52789 0.00000 0.00000
											CHANNELS 3 Zrotation Xrotation Yrotation
											JOINT LeftHandPinky3
											{
												OFFSET 2.46976 0.00000 0.00000
												CHANNELS 3 Zrotation Xrotation Yrotation
												End site
												{
													OFFSET 0.00000 0.00000 0.00000
												}
											}
										}
									}
								}
							}
						}
					}
					JOINT pCube4
					{
						OFFSET 0.00000 10.91090 1.10792
						CHANNELS 3 Zrotation Xrotation Yrotation
						End site
						{
							OFFSET 0.00000 0.00000 0.00000
						}
					}
				}
			}
		}
	}
	JOINT RightUpLeg
	{
		OFFSET -9.98441 0.00000 0.00000
		CHANNELS 3 Zrotation Xrotation Yrotation
		JOINT RightLeg
		{
			OFFSET 0.00000 -42.11790 0.00000
			CHANNELS 3 Zrotation Xrotation Yrotation
			JOINT RightFoot
			{
				OFFSET 0.00000 -45.00020 -0.00001
				CHANNELS 3 Zrotation Xrotation Yrotation
				JOINT RightForeFoot
				{
					OFFSET 0.00000 -3.74820 0.00000
					CHANNELS 3 Zrotation Xrotation Yrotation
					JOINT RightToeBase
					{
						OFFSET 0.00000 0.06325 14.43120
						CHANNELS 3 Zrotation Xrotation Yrotation
						End site
						{
							OFFSET 0.00000 0.00000 0.00000
						}
					}
				}
			}
		}
	}
	JOINT LeftUpLeg
	{
		OFFSET 9.98441 0.00000 0.00000
		CHANNELS 3 Zrotation Xrotation Yrotation
		JOINT LeftLeg
		{
			OFFSET 0.00000 -42.11800 0.00000
			CHANNELS 3 Zrotation Xrotation Yrotation
			JOINT LeftFoot
			{
				OFFSET 0.00000 -45.00070 0.00000
				CHANNELS 3 Zrotation Xrotation Yrotation
				JOINT LeftForeFoot
				{
					OFFSET 0.00000 -3.74824 0.00000
					CHANNELS 3 Zrotation Xrotation Yrotation
					JOINT LeftToeBase
					{
						OFFSET 0.00000 0.06325 14.43110
						CHANNELS 3 Zrotation Xrotation Yrotation
						End site
						{
							OFFSET 0.00000 0.00000 0.00000
						}
					}
				}
			}
		}
	}
}
MOTION
Frames: 4
Frame Time: 0.050000
-0.0421777853612447 -0.017378828097989085 -0.03582026069318656 -0.03597375524665458 0.005775986797998161 0.0009380295767531572 -3.9886694164975407 0.6759437830048962 -0.6847891308511862 -1.105287103170787 3.557474027734939 0.3450981280631953 -1.3020054379750197 -2.3509372400606785 -2.2636238349181563 -1.5372259176853533 0.19694404737422364 -0.9320805080933058 -1.3459054672558 13.232273441093296 5.088839399089111 0.38777516630202424 -0.17283770869567627 12.259716206026026 -1.0152417767667947 -15.614295669862827 1.010113328972896 -6.4875434789977975 2.4224392741672394 -15.487387890648558 68.24352107882686 13.881640732725206 -2.6461588914797565 -11.419990788806253 -2.5726892688846643 90.45856752921155 25.80938675833808 -0.551834573453058 -6.42384467831051 4.524814888944676 -0.1608574020618168 -1.581000634351867 -0.02868761972010952 -0.04755408021805796 -56.22211446162241 0.029395826840628476 -0.02842020347614373 -56.2031842821489 -38.78128172698656 -0.008684892112986066 0.003924842292417613 0.013807061076750863 0.03800766003553601 -0.03689881264338838 0.027237582474189902 -0.03125113832682351 -0.027510326514085193 -36.6746142136709 0.023314564576123773 0.027245124923671378 -0.003953363634324032 0.03577844615355332 0.03899075766209603 -0.01637250463274788 -0.005543409376768222 -0.011359913486105018 -19.806288159544494 -0.011761996881454262 -0.020403407209304527 -0.004673303937673397 -0.0376781457046897 0.01702299162610111 -0.04185282584828736 -0.013732919325445592 0.003258814232338329 24.057091677411115 -0.024132683928842415 0.035824140416005984 28.861916791192307 0.03276765211089561 0.007476773945742967 28.837089127539247 -0.0190504527637562 -0.03581568669243309 9.451038211017345 2.096456107106625 12.920483219317942 -70.8223570138868 31.177414646069458 -9.486736053836491 -12.774997389077116 -9.633727425403546 -64.51804765775479 -12.540512034273881 -2.8891242559815495 3.7420815252403714 -0.46523203123157947 0.024262954247588356 -8.118840268996486 -0.02897799812168462 0.04976965130964034 44.58047599519318 -0.007232926895165399 -0.04401707016423912 44.53713478884751 12.455374196409327 0.006478152495791132 -0.013974005061683838 -0.01840787908985291 0.01653612079419721 -0.020722466928646207 -0.043933029025948346 9.082100076096021e-05 0.015995558436299618 11.066380991903253 0.027548509815458998 -0.03371513711425992 0.00493547926816205 -0.024510243198197588 0.0016374723328914996 0.014163422862574857 -0.024576557080413054 0.021843159040308896 4.756665604880501 -0.006847169084396204 -0.00686464517961579 0.04374083537673657 -0.03483314707028271 -0.0025653981921151094 -0.03644608808139741 0.04836599488447396 -0.012150385842501589 -5.554134357215612 0.02193551229890081 0.04970547556290291 -6.682919637897248 -0.046356196708327975 0.04160243771202301 -6.72080379395068 0.025329570274739074 -0.022804065234467097 0.021035972345214766 0.04585093119678899 -0.014429249034699354 8.005378261698697 3.45679452714713 -19.213130431507945 0.03338016689051911 10.397993380297795 0.01914935457064754 -5.641556609746298 -15.709852383626261 3.188178664694801 -0.0017447907868754697 0.04299070164404109 -0.048386335726261255 -0.037629724293994624 4.741469330581491 0.03890662485801506 12.479422366402622 -8.228055141016732 6.869285015022444 -0.018943296944069113 46.41513018512992 -0.04122367588149993 -4.307894620492125 -14.723324940636035 -3.8605999113789804 -0.04789689859348899 -0.00045640339140362834 -0.010007109640921191 0.023647794293504002 -10.735989511376886 0.011579462493419757 
-0.04131799913094431 0.0215815098185808 0.03794001049578931 -0.021775306654575992 0.008639587492106431 -3.287451497852254e-06 -3.6728587738593044 0.6579084236469976 -0.7238779167197983 -1.0622958711010615 3.546231968074607 0.4075854472277421 -1.206872230542701 -2.3573851425059273 -2.303506897449873 -1.5460212917363725 0.21876470200505613 -0.9246624137070212 -1.3693334227700094 13.280919845256669 5.1672574525968225 0.412997021128661 -0.0013473523048254596 12.337785913063865 -1.113642265518974 -15.154141550982555 0.9764160764667832 -6.522348739095869 2.484488874836714 -15.462644214547263 67.52952514355607 14.951389855113423 -2.1584178048193463 -14.814556019238093 -2.906213667359389 91.16583283195916 25.972151560736528 -0.6318885647500936 -6.82951286873504 4.5188901902932646 -0.08705045152523402 -1.5877129011275837 -0.0027294843310187236 0.04816061410759906 -56.23114779593942 0.009748873957401828 -0.007842373228441793 -56.24046233062564 -38.81159793078296 0.0047293334541937005 -0.0010411685145154392 0.01744821200927667 0.04928650175233789 0.010036545702025683 0.039465352077075064 0.03108762839534356 -0.026701552595698994 -36.729499705842215 0.002876828594074518 -0.045150724940570965 0.016351705334689076 0.014871938192179907 -0.014700827986662173 -0.024238794591233397 -0.02847481597201899 0.041670949924160844 -19.805987970414645 0.03580097318082903 0.012195453116930205 -0.03212833435914941 0.0001553129961856403 0.0058664409833031 -0.032826231909216956 -2.717633211349552e-05 0.012770386382566556 24.032655267135958 -0.03946226963242097 -0.04386172087471304 28.872132070187703 0.008055022237393359 -0.0185636374042647 28.840880231943252 0.01596691044950454 0.04180580938292346 9.666276938597592 2.170273551548666 12.839821714646762 -70.70384519693394 30.594170386562098 -10.92216334402118 -12.274208580524586 -10.921237644166565 -65.32408971099497 -12.591251269277764 -3.547781069130478 4.1880675756039425 -0.42966711746174024 0.035227100546624 -8.100474522279177 -0.02055460993886941 -0.03011919773850053 44.56152659151605 -0.008059303200879171 -0.0060736081191303274 44.59901315434177 12.427590569537074 0.0317005098321155 -0.017493226529768195 0.02335549160800359 -0.04460749663428491 -0.01962054100627842 -0.039108511300499714 -0.006741869010635671 0.042655857427503344 11.104722561593947 0.013215406583380445 0.033560251646698 -0.02185031352502332 0.049114137853875924 0.009989155219072843 0.013480412420420727 0.03535778284776084 0.018991885611516417 4.809060399693666 0.03861852228992734 -0.008004669074932493 0.012611735234781898 0.018029822317079416 0.04896334426025918 0.002213136807712847 0.02254745626129782 0.047913125181701544 -5.6345017572814475 0.020468742762913356 -0.01905972486942721 -6.69174342662174 -0.03242660526321672 0.04732908390734708 -6.753249257299777 -0.043341643874886315 0.007320394711476891 -0.0478706469485799 -0.011394052860259466 0.020797639499500153 8.051434426451817 3.5275627741434814 -19.267889226797426 -0.018177942570766634 10.402527060760987 0.014362665088112975 -5.633723949030172 -15.6577993846813 3.226771435025835 0.02283303327240405 -0.00021588301995663226 0.02941366253986396 -0.01571777595732602 4.710632356909635 -0.024127430658874908 12.425442867417301 -8.242387482326807 6.88354504465665 0.017520706439190337 46.34314998994857 0.016301507871001684 -4.288235254141328 -14.777131688338466 -3.8740965195573027 -0.03002599677904148 0.01067504416937434 0.02788083232556199 0.033705882204983585 -10.75361230369492 -0.017083035264617057 
-0.03621443736178697 -0.02906947817534565 0.04802862564419458 -0.004188053398783878 -0.002339827410988572 -0.016587790992465413 -3.3738702412578796 0.576297368791604 -0.7949340281787709 -1.058386781062341 3.5215300685392252 0.3216126137867763 -1.230075085039682 -2.374875529884778 -2.256868306817544 -1.4548594412112328 0.24968372603896355 -0.924600475616345 -1.30442765780177 13.383871624141877 4.882281346295945 0.3856113029399893 0.24888522973870525 11.65614137517833 -1.0750253411676882 -14.842736848244963 0.9132913874820442 -6.4844682836583285 2.404756872894651 -15.412608108526765 67.04060548194535 16.33768242187019 -1.53029749211779 -17.5222946912986 -3.017273975157299 91.85395110942179 26.180237936228387 -0.5572944820041235 -7.239959956571377 4.5630904856903545 -0.10975241164849446 -1.5778421380449597 0.007518490110786475 0.00899200553350105 -56.228697078234006 0.02737131583462851 0.04553695793185148 -56.27794662883967 -38.76036700223128 0.015165615578080788 -0.02423364466537718 -0.0335606403710051 -0.00979937358445991 0.028041476476344508 -0.026719243268429192 -0.015329220440665202 0.03447015130670705 -36.73680290036778 0.015483178248362048 -0.007618779568582821 0.039468528860790636 -0.008334957669625933 0.02369438411086629 -0.011757111930052496 -0.03678624458202419 0.01890822303737011 -19.756311679809745 -0.031869827962623325 -0.004764057365638841 0.01617000856033871 0.005876625135890331 0.025795191981377055 0.012804043542123476 0.011092122261893933 0.03214966905570619 24.07474993854106 0.040544496225374385 -0.011831061499385547 28.833199423080227 0.04404312744792767 0.025902385664666763 28.869958740071116 0.00295565763952029 0.02640256729760204 9.618507903896363 2.1300739148699988 12.865250911586473 -70.3785219116982 30.386133533722774 -11.551731917959048 -12.397373630169955 -11.17136677650458 -66.29335940200654 -13.09856573273144 -4.343976550835613 4.687813156229392 -0.4607680876540903 0.04135931636701326 -8.161691271223887 -0.006182930696201304 -0.029426628061613863 44.562538601853106 -0.018888048840833154 -0.046853782318196244 44.54161784345304 12.463294077919379 -0.00290674681035375 0.03124491114840319 0.011713741870438006 -0.020687047297041725 -0.027164583993960555 0.008511640482678124 -0.017491024432899474 -0.03193717316818783 11.097563443337586 0.038115082516432204 0.03587169087594327 -0.03273112206886174 -0.031200368330218418 0.03335421886374281 0.017691331153115098 0.021801821491557048 0.001212353280434255 4.796061391675006 0.005524760312485212 -0.045639439499556726 0.023966056427849824 -0.003221799694047271 -0.012559368712249235 -0.019716798548190872 0.04642690816552486 -0.02110603107099276 -5.562124136653348 -0.0020934185075146806 0.04911794668191071 -6.70559685519273 -0.0161522761679787 -0.010706948935198999 -6.69282481892052 0.0303353229173109 0.025257549456784677 0.03122847103757491 0.036383289938327686 0.004891247534460115 8.090101837911586 3.4859211803116663 -19.228163080901414 0.040407711122310015 10.348402882570278 -0.018282311992458503 -5.603306414649887 -15.647305130282426 3.1425060069869994 -0.004905188461781163 0.0050804838005110795 0.0038580630392558214 0.029501073931490283 4.651999795146799 -0.018192707181232965 12.435138553343279 -8.230838684097753 6.869354530849079 0.02471663385667116 46.38220044016118 -0.03275671273197401 -4.3227780506757645 -14.760412047737521 -3.851691258631099 -0.04777721766662345 0.018654942855860206 -0.010449957015364764 0.012984777506017462 -10.709811748855477 -0.03437304719032681 
-0.041638326725100594 0.03540240065521268 0.03383232325679105 -0.04128636020087285 0.005405614823408862 0.010315239726653765 -3.091585158346219 0.48581293821583255 -0.8633539528828064 -1.0427780967762024 3.53846249482241 0.3754528693143936 -1.1432712276149606 -2.3264060756618 -2.1686010880246847 -1.3098824195289305 0.273613642743724 -0.9235318316377578 -1.1820009604963924 13.367359275148388 4.384532523872478 0.3740507049081319 0.44100438868883596 10.53702196503753 -0.9914177474778088 -14.37939361729143 0.81617371610399 -6.330992128724472 2.388963036650711 -15.35895042651955 66.75992188431383 18.37684186419847 -0.8288425611541242 -19.075521174248344 -2.7343414492835008 92.6265055818739 26.286098792537707 -0.584589115697111 -7.581616523883831 4.513140486232446 -0.09797625627138576 -1.6045580128819057 0.0464152046233955 0.03234833696078154 -56.25131952506826 0.005675289522746766 -0.010093855152256404 -56.22170730803041 -38.76701428460824 0.002672349057290428 -0.04390626524144413 -0.01189946863146554 -0.004131280320250987 -0.0006532807489635014 0.030783477296173072 -0.02706171530609561 0.014410461139170784 -36.68708788398345 -0.020509668620198387 -0.033151204296417644 -0.013294652479437657 -0.01407964461702469 -0.002995027707112936 -0.009251581963732214 -0.01982045077346543 0.007329392537202545 -19.734301332869116 -0.009767131578974624 0.047193482363601665 -0.010063122242183647 -0.009396376891592383 0.03736538191688045 0.0206160222343492 -0.02390713069109169 -0.02056787426467659 24.05416384526338 -0.006695567599540569 0.01018758695782726 28.82015362733702 -0.03878471324318884 -0.01074226130379977 28.89698128543976 -0.047615269438169426 0.04513698443458139 9.38324854437772 2.1014451044730404 12.857737157430009 -70.17584172377448 30.37391259809868 -11.693893811736443 -12.923038735442418 -10.905631822749893 -66.75839472872177 -13.62038121404294 -4.864804650880532 4.993334621834119 -0.5049175464765154 0.08478718102169319 -8.117189312310002 0.015984381985584457 0.03024629129077032 44.52592748752139 -0.04011129165446744 0.011421781102853894 44.533648978088024 12.489138990622596 0.03168748305601838 0.01896218707406332 -0.0367677745360308 0.04042460984558118 -0.03514185612669387 -0.049966736118222194 -0.021932287772803396 0.003668719074243396 11.137398871138961 0.0360934459693183 0.002103417015916132 0.022851460372873566 -0.03826230559703585 -0.0023289838463429577 -0.0030937964855594657 -0.033805215348439326 -0.014330107321201152 4.7986380913365085 0.02597711104439982 -0.009389886457852204 0.015684044190169635 -0.023061363855724642 0.00330254293088534 0.008779275092438846 -0.030555110418721474 -0.03792577864106 -5.550962959278489 -0.020988397206803153 0.03062846474388514 -6.676302657886738 -0.03333968577575047 0.019504493161373208 -6.69865957648446 -0.02118511004095278 -0.03383125081371177 0.0033959894412121344 0.02656018718720327 0.014955804949638456 8.012949457011908 3.4531248222591366 -19.20192845755584 -0.004606523622473383 10.435250852361078 0.001556205173410763 -5.61404499864669 -15.642868599424594 3.2356396789766477 0.029810780965191415 -0.04078529194223886 -0.04536282196271219 -0.04656233913807716 4.687457387896088 0.0418689415667411 12.448716287848175 -8.231956052858264 6.929002676192739 -0.0005833172262702831 46.38652027597787 -0.005742079877786562 -4.280915502616152 -14.759648159478493 -3.8494849740729515 0.01758718450512869 -0.005220952254827234 -0.04006196176354402 -0.025720603311274005 -10.755180773438367 -0.03001705445638373 
